<svg width="165" height="64" xmlns="http://www.w3.org/2000/svg" xmlns:xlink="http://www.w3.org/1999/xlink" xml:space="preserve" overflow="hidden"><defs><clipPath id="clip0"><rect x="80" y="75" width="165" height="64"/></clipPath></defs><g clip-path="url(#clip0)" transform="translate(-80 -75)"><path d="M86.4557 31.2831 86.4557 31.2831 70.5176 16.2297 60.4256 28.6318 66.5249 34.394 66.5263 34.394C73.5758 41.0537 72.0822 46.4845 60.656 46.4845 60.656 46.4845 53.3377 46.4845 45.6396 46.4845L33.6941 61.1638 65.6131 61.1638C92.2862 61.2562 99.963 44.0408 86.4557 31.2831Z" fill="#00AEEF" transform="matrix(1 0 0 1.04637 80 75)"/><path d="M147.42 28.7015C156.09 23.8653 157.232 15.1146 154.291 9.70086 151.232 4.07522 142.6 0 126.912 0L80.2768 0 75.799 0C69.3825 4.10082 73.7835 8.41927 79.2412 13.0876L126.913 13.0876C133.852 13.2683 134.684 22.0161 126.913 22.2978L87.0147 22.2978 92.8011 27.7712C95.3416 30.1722 97.2846 32.7468 98.6544 35.3868L135.017 35.3868C141.954 35.6059 142.788 46.1844 135.017 46.5257L100.856 46.5257C100.526 49.2226 99.5576 51.8484 97.9076 54.2921 96.0954 56.979 93.592 59.2777 90.531 61.1638L142.361 61.1638C142.361 61.1638 163.37 61.087 164.999 44.7662 165 36.9259 157.483 30.3771 147.42 28.7015Z" fill="#00AEEF" transform="matrix(1 0 0 1.04637 80 75)"/><path d="M38.1235 14.3934 0 61.1538 24.723 61.1538 50.7716 29.0869C50.7716 29.0869 39.6526 20.4529 38.1235 14.3934Z" fill="#2B3990" transform="matrix(1 0 0 1.04637 80 75)"/><path d="M65.2618 11.2556C60.38 6.42789 60.262 2.47073 65.5206 0L49.6977 0 43.8601 7.17181C44.2698 10.8687 48.6423 17.1472 51.4103 20.1158 54.1755 23.0858 55.1655 23.6619 55.1655 23.6619L65.2618 11.2556Z" fill="#ED1847" transform="matrix(1 0 0 1.04637 80 75)"/></g></svg>